<svg id="Layer_1" data-name="Layer 1" xmlns="http://www.w3.org/2000/svg" xmlns:xlink="http://www.w3.org/1999/xlink" viewBox="0 0 1500 1000"><defs><style>.cls-1{fill:#fff;}.cls-2{fill:url(#linear-gradient);}.cls-3{fill:url(#linear-gradient-2);}.cls-4{fill:url(#linear-gradient-3);}.cls-5{fill:url(#linear-gradient-4);}.cls-6{fill:url(#linear-gradient-5);}</style><linearGradient id="linear-gradient" x1="842.35" y1="565.47" x2="842.35" y2="313.03" gradientUnits="userSpaceOnUse"><stop offset="0" stop-color="#495197"/><stop offset="0.44" stop-color="#963883"/><stop offset="0.82" stop-color="#d42473"/><stop offset="1" stop-color="#ec1c6d"/></linearGradient><linearGradient id="linear-gradient-2" x1="982.48" y1="565.47" x2="982.48" y2="313.03" xlink:href="#linear-gradient"/><linearGradient id="linear-gradient-3" x1="296.13" y1="565.47" x2="296.13" y2="313.03" xlink:href="#linear-gradient"/><linearGradient id="linear-gradient-4" x1="394.5" y1="565.47" x2="394.5" y2="313.03" xlink:href="#linear-gradient"/><linearGradient id="linear-gradient-5" x1="628.71" y1="565.47" x2="628.71" y2="313.03" xlink:href="#linear-gradient"/></defs><path class="cls-1" d="M1127.85,518.86a16,16,0,0,0-12-5,17.05,17.05,0,0,0,0,34.1,16.14,16.14,0,0,0,11.89-5,17.27,17.27,0,0,0,.09-24.09Z"/><path class="cls-1" d="M1145.53,434.8V545.69H1171V434.8Zm24-39.55a15.12,15.12,0,0,0-11.14-4.64,15.38,15.38,0,0,0-11.37,4.64,15.17,15.17,0,0,0-4.61,11.14,15.76,15.76,0,0,0,16,16,14.94,14.94,0,0,0,11.14-4.73,15.49,15.49,0,0,0,4.64-11.25A15.12,15.12,0,0,0,1169.51,395.25Z"/><path class="cls-1" d="M1280.6,449.51q-16.81-16.8-40.82-16.82a57.48,57.48,0,0,0-57.44,57.64q0,23.81,16.94,40.73t40.5,16.94a57.67,57.67,0,0,0,57.66-57.67Q1297.44,466.36,1280.6,449.51Zm-18.93,63.35a29.8,29.8,0,0,1-43.56,0,32.93,32.93,0,0,1,0-45.35,30,30,0,0,1,43.56,0,32.9,32.9,0,0,1,0,45.35Z"/><path class="cls-2" d="M901.41,321.78,842.5,454.63,783.6,321.78H733.16L839.06,548H846L951.54,321.78Z"/><path class="cls-3" d="M970.53,321.78l-25.24,58.5,37.4,85.1H908.52L889,510.48h112.63L1017.57,548h58.37Z"/><polygon class="cls-4" points="202.56 322.66 202.56 547.12 238.81 547.12 238.81 411.69 389.7 547.12 389.7 490.07 202.56 322.66"/><polygon class="cls-5" points="300.66 322.66 300.66 378.64 488.34 547.12 488.34 322.66 451.02 322.66 451.02 457.01 300.66 322.66"/><path class="cls-6" d="M708.48,354.81q-33-33-79.78-33t-79.76,33q-33,33-33,79.78t33,79.92q33,33.18,79.76,33.19t79.78-33.19q33-33.18,33-79.92T708.48,354.81ZM676.54,484q-19.8,20.41-47.84,20.4-27.72,0-47.5-20.4t-19.79-49.38q0-29,19.79-49.55t47.5-20.56q28,0,47.84,20.56t19.78,49.55Q696.32,463.57,676.54,484Z"/><path class="cls-1" d="M231.74,627.21v8.06H248.4a14.79,14.79,0,0,1-5.63,9.51,17.23,17.23,0,0,1-11,3.71,16.33,16.33,0,0,1-12.38-5.36,18.48,18.48,0,0,1-5-13.11,17.91,17.91,0,0,1,5-12.84,16.39,16.39,0,0,1,12.38-5.27,16,16,0,0,1,8.78,2.49,19.12,19.12,0,0,1,6.37,6.61L257,615.44a29,29,0,0,0-10.71-10.67,28.57,28.57,0,0,0-14.58-3.91,29.21,29.21,0,0,0,0,58.41,27.36,27.36,0,0,0,20.31-8.49,28.75,28.75,0,0,0,8.37-20.58v-3Z"/><path class="cls-1" d="M294.9,615.94v23.84a9.52,9.52,0,0,1-2.85,6.88,9.19,9.19,0,0,1-6.72,2.78,7.2,7.2,0,0,1-5.41-2.22,7.44,7.44,0,0,1-2.18-5.43V615.94H268v28.34a14.74,14.74,0,0,0,4.18,10.53,13.58,13.58,0,0,0,10.17,4.39,14.84,14.84,0,0,0,7.18-1.81,15.5,15.5,0,0,0,5.38-4.89v5.88h9.76V615.94Z"/><path class="cls-1" d="M315.69,615.94v42.44h9.75V615.94Zm9.19-15.17a5.82,5.82,0,0,0-4.26-1.77,6,6,0,0,0-4.37,1.77,6.16,6.16,0,0,0,0,8.62,6,6,0,0,0,4.37,1.77,5.71,5.71,0,0,0,4.26-1.81,5.93,5.93,0,0,0,1.79-4.3A5.87,5.87,0,0,0,324.88,600.77Z"/><path class="cls-1" d="M367.76,597.08v26.17a16.62,16.62,0,0,0-5.84-5.91,15.31,15.31,0,0,0-8-2.22,18.34,18.34,0,0,0-14.08,6.45,23.78,23.78,0,0,0,0,31.22,18.27,18.27,0,0,0,14.08,6.48,15.14,15.14,0,0,0,8-2.24,17.06,17.06,0,0,0,5.84-6v7.33h9.75v-61.3Zm-3.42,48.74a11,11,0,0,1-8.26,3.62,11.27,11.27,0,0,1-8.38-3.57,12.6,12.6,0,0,1,0-17.41,11.16,11.16,0,0,1,8.38-3.58,11,11,0,0,1,8.26,3.58,12.72,12.72,0,0,1,0,17.36Z"/><path class="cls-1" d="M389.26,615.94v42.44H399V615.94Zm9.2-15.17a5.84,5.84,0,0,0-4.28-1.77,5.91,5.91,0,0,0-4.35,1.77,6.13,6.13,0,0,0,0,8.62,5.91,5.91,0,0,0,4.35,1.77,5.72,5.72,0,0,0,4.28-1.81,5.94,5.94,0,0,0,1.76-4.3A5.88,5.88,0,0,0,398.46,600.77Z"/><path class="cls-1" d="M443.42,619.51a13.7,13.7,0,0,0-10.14-4.39,14.72,14.72,0,0,0-7.18,1.81,14.43,14.43,0,0,0-5.32,4.87v-5.86H411v42.44h9.76V634.46a9.19,9.19,0,0,1,2.78-6.84,9.39,9.39,0,0,1,6.89-2.74,7.49,7.49,0,0,1,7.49,7.56v25.94h9.76V630A14.45,14.45,0,0,0,443.42,619.51Z"/><path class="cls-1" d="M488.47,615.94v7.31a17.46,17.46,0,0,0-5.93-5.91,15.31,15.31,0,0,0-8-2.22,18.44,18.44,0,0,0-14.15,6.45,23.78,23.78,0,0,0,0,31.22,18.37,18.37,0,0,0,14.15,6.48,15.1,15.1,0,0,0,8-2.24,17.64,17.64,0,0,0,6-6V659a9.61,9.61,0,0,1-3.6,7.43,12.84,12.84,0,0,1-8.74,3.14,12.55,12.55,0,0,1-9.82-4.21l-7.41,5.89a20.81,20.81,0,0,0,7.52,5.12,25.05,25.05,0,0,0,9.71,1.9,23,23,0,0,0,15.6-5.53q6.42-5.49,6.41-13.08V615.94ZM485,645.82a11.53,11.53,0,0,1-16.78,0,12.62,12.62,0,0,1,0-17.36,11.62,11.62,0,0,1,16.78,0,12.62,12.62,0,0,1,0,17.36Z"/><path class="cls-1" d="M553.42,648.88a10.42,10.42,0,0,1-3.87,1.06,6.36,6.36,0,0,1-4.55-1.79,5.54,5.54,0,0,1-1.9-4.19V624.63h9.26v-8.69H543.1V605.36h-9.76v10.58h-5.55v8.69h5.55V644a14.35,14.35,0,0,0,4.76,10.85,16.08,16.08,0,0,0,11.45,4.46,17,17,0,0,0,7.25-1.68Z"/><path class="cls-1" d="M594.83,619.51a13.7,13.7,0,0,0-10.14-4.39,14.94,14.94,0,0,0-12.41,6.68V597.08h-9.76v61.3h9.76V634.46a9.4,9.4,0,0,1,9.58-9.58,7.29,7.29,0,0,1,5.36,2.19,7.42,7.42,0,0,1,2.22,5.37v25.94h9.67V630A14.45,14.45,0,0,0,594.83,619.51Z"/><path class="cls-1" d="M649.14,637.13a21.34,21.34,0,0,0-6.41-15.65,21.81,21.81,0,0,0-31,0,21.41,21.41,0,0,0-6.36,15.65,20.89,20.89,0,0,0,6.68,15.57,22.12,22.12,0,0,0,16,6.5c8.22,0,14.49-3,18.86-9.1L638,645.19a11.27,11.27,0,0,1-10,5.23,11.09,11.09,0,0,1-7.49-2.79,10.85,10.85,0,0,1-3.81-6.88h32.08A17.6,17.6,0,0,0,649.14,637.13Zm-32.4-4.37a10,10,0,0,1,3.67-6.52,10.9,10.9,0,0,1,7-2.49,11.8,11.8,0,0,1,7.47,2.49,9.83,9.83,0,0,1,3.73,6.52Z"/><path class="cls-1" d="M709.84,619.51a13.75,13.75,0,0,0-10.17-4.39,14.94,14.94,0,0,0-12.49,6.68v-5.86h-9.74v42.44h9.74V634.46a9.15,9.15,0,0,1,2.78-6.84,9.36,9.36,0,0,1,6.88-2.74,7.49,7.49,0,0,1,7.52,7.56v25.94h9.73V630A14.5,14.5,0,0,0,709.84,619.51Z"/><path class="cls-1" d="M764.06,637.13a21.34,21.34,0,0,0-6.41-15.65,21.84,21.84,0,0,0-31,0,21.49,21.49,0,0,0-6.36,15.65A20.91,20.91,0,0,0,727,652.7a22.11,22.11,0,0,0,15.94,6.5c8.24,0,14.51-3,18.86-9.1l-8.86-4.91a11.27,11.27,0,0,1-10,5.23,11.15,11.15,0,0,1-7.5-2.79,10.91,10.91,0,0,1-3.78-6.88h32.08A19.12,19.12,0,0,0,764.06,637.13Zm-32.4-4.37a10,10,0,0,1,3.67-6.52,10.83,10.83,0,0,1,7-2.49,11.67,11.67,0,0,1,7.45,2.49,9.79,9.79,0,0,1,3.76,6.52Z"/><path class="cls-1" d="M819.25,615.94l-9.35,22-10.61-22h-1.14l-10.57,22-9.42-22H767.21l19.08,43.89h1.13l11.3-23.61L810,659.83h1.2l19.11-43.89Z"/><path class="cls-1" d="M895.1,632.69a22.33,22.33,0,0,0-9.6-5.57l-12.41-3.78q-6.52-1.94-6.52-5.89a5.26,5.26,0,0,1,3-4.82,12.78,12.78,0,0,1,6.34-1.7,17.44,17.44,0,0,1,7,1.5,13.14,13.14,0,0,1,5.43,4.14l8.06-6.61Q889.76,601,875.83,601a24.18,24.18,0,0,0-14.67,4.71A14.55,14.55,0,0,0,854.71,618a13.43,13.43,0,0,0,3.44,9.35,20.14,20.14,0,0,0,8.9,5.57l11.77,3.62a20.09,20.09,0,0,1,5.75,2.58,4.33,4.33,0,0,1,2.06,3.69,5.16,5.16,0,0,1-3.1,4.73,15.61,15.61,0,0,1-7.38,1.66,18.94,18.94,0,0,1-8.74-2.38,17.19,17.19,0,0,1-6.73-5.77l-7.42,6.86a21.27,21.27,0,0,0,9.44,8.33,29.92,29.92,0,0,0,13,2.94q9.68,0,16.25-5.12c4.37-3.42,6.57-7.6,6.57-12.61A12.28,12.28,0,0,0,895.1,632.69Z"/><path class="cls-1" d="M932.72,615.94v23.84a9.64,9.64,0,0,1-2.85,6.88,9.21,9.21,0,0,1-6.75,2.78,7.12,7.12,0,0,1-5.38-2.22,7.44,7.44,0,0,1-2.18-5.43V615.94H905.8v28.34A14.75,14.75,0,0,0,910,654.81a13.58,13.58,0,0,0,10.17,4.39,14.64,14.64,0,0,0,7.15-1.81,15.33,15.33,0,0,0,5.41-4.89v5.88h9.76V615.94Z"/><path class="cls-1" d="M992.24,621.57a18.41,18.41,0,0,0-14.15-6.45,15.25,15.25,0,0,0-8,2.22,16.54,16.54,0,0,0-5.84,5.91v-7.31h-9.76v61.71h9.76v-26.6a17,17,0,0,0,5.84,6,15.08,15.08,0,0,0,8,2.24,18.34,18.34,0,0,0,14.15-6.48,23.78,23.78,0,0,0,0-31.22Zm-7.85,24.25a11.24,11.24,0,0,1-8.4,3.62,11.06,11.06,0,0,1-8.34-3.62,12.75,12.75,0,0,1,0-17.36,11.09,11.09,0,0,1,8.34-3.58,11.27,11.27,0,0,1,8.4,3.58,12.62,12.62,0,0,1,0,17.36Z"/><path class="cls-1" d="M1045.85,637.13a21.34,21.34,0,0,0-6.41-15.65,21.81,21.81,0,0,0-31,0,21.41,21.41,0,0,0-6.36,15.65,20.89,20.89,0,0,0,6.68,15.57,22.12,22.12,0,0,0,16,6.5c8.22,0,14.49-3,18.86-9.1l-8.87-4.91a11.27,11.27,0,0,1-10,5.23,11.09,11.09,0,0,1-7.49-2.79,10.85,10.85,0,0,1-3.81-6.88h32.08A17.6,17.6,0,0,0,1045.85,637.13Zm-32.4-4.37a10,10,0,0,1,3.67-6.52,10.87,10.87,0,0,1,7-2.49,11.81,11.81,0,0,1,7.48,2.49,9.83,9.83,0,0,1,3.73,6.52Z"/><path class="cls-1" d="M1075,615.12a13.86,13.86,0,0,0-6.9,1.81,14.66,14.66,0,0,0-5.19,5v-5.95h-9.66v42.44H1063V637.19a12.36,12.36,0,0,1,3.35-8.82,10.87,10.87,0,0,1,8.18-3.49,17.21,17.21,0,0,1,2.76.22v-9.82A11.49,11.49,0,0,0,1075,615.12Z"/><path class="cls-1" d="M1142.39,632.69a22.25,22.25,0,0,0-9.58-5.57l-12.41-3.78c-4.34-1.29-6.54-3.26-6.54-5.89a5.28,5.28,0,0,1,3-4.82,12.76,12.76,0,0,1,6.32-1.7,17.43,17.43,0,0,1,7.06,1.5,13.24,13.24,0,0,1,5.44,4.14l8.06-6.61q-6.69-8.93-20.63-8.94a24.18,24.18,0,0,0-14.67,4.71A14.55,14.55,0,0,0,1102,618a13.51,13.51,0,0,0,3.42,9.35,20.1,20.1,0,0,0,8.92,5.57l11.75,3.62a20.24,20.24,0,0,1,5.77,2.58,4.37,4.37,0,0,1,2.06,3.69,5.16,5.16,0,0,1-3.1,4.73,15.67,15.67,0,0,1-7.38,1.66,18.94,18.94,0,0,1-8.74-2.38,17.16,17.16,0,0,1-6.72-5.77l-7.43,6.86a21.27,21.27,0,0,0,9.44,8.33,29.85,29.85,0,0,0,13,2.94q9.67,0,16.23-5.12c4.4-3.42,6.59-7.6,6.59-12.61A12.3,12.3,0,0,0,1142.39,632.69Z"/><path class="cls-1" d="M1175,648.88a10.66,10.66,0,0,1-3.87,1.06,6.31,6.31,0,0,1-4.55-1.79,5.54,5.54,0,0,1-1.9-4.19V624.63h9.26v-8.69h-9.26V605.36h-9.76v10.58h-5.54v8.69h5.54V644a14.35,14.35,0,0,0,4.76,10.85,16.08,16.08,0,0,0,11.45,4.46,17.07,17.07,0,0,0,7.25-1.68Z"/><path class="cls-1" d="M1214.11,615.94v7.31a16.62,16.62,0,0,0-5.84-5.91,15.31,15.31,0,0,0-8-2.22,18.32,18.32,0,0,0-14.06,6.45,23.78,23.78,0,0,0,0,31.22,18.25,18.25,0,0,0,14.06,6.48,15.14,15.14,0,0,0,8-2.24,17.06,17.06,0,0,0,5.84-6v7.33h9.75V615.94Zm-3.42,29.88a10.94,10.94,0,0,1-8.27,3.62,11.29,11.29,0,0,1-8.37-3.57,12.65,12.65,0,0,1,0-17.41,11.19,11.19,0,0,1,8.37-3.58,11,11,0,0,1,8.27,3.58,12.72,12.72,0,0,1,0,17.36Z"/><path class="cls-1" d="M1257.14,615.12a13.79,13.79,0,0,0-6.88,1.81,14.72,14.72,0,0,0-5.21,5v-5.95h-9.66v42.44h9.76V637.19a12.23,12.23,0,0,1,3.35-8.82,10.77,10.77,0,0,1,8.17-3.49,17.15,17.15,0,0,1,2.74.22v-9.82A11.49,11.49,0,0,0,1257.14,615.12Z"/><path class="cls-1" d="M1295.27,639.82a13.23,13.23,0,0,0-6.54-4.48l-10.08-3.69q-3.29-1-3.28-3.87a4.2,4.2,0,0,1,1.81-3.44,7.22,7.22,0,0,1,4.55-1.41,19,19,0,0,1,10.55,3.62l4.28-6.67q-6-4.75-15-4.76-7.9,0-12.65,4.1c-3.17,2.74-4.76,5.93-4.76,9.51a10.71,10.71,0,0,0,2,6.22,11.6,11.6,0,0,0,5.93,4.19l10.3,3.47c2.7.9,4,2.3,4,4.18a4.17,4.17,0,0,1-1.85,3.31,7.41,7.41,0,0,1-4.67,1.45,20.16,20.16,0,0,1-13.13-4.76l-3.87,6.77a18.31,18.31,0,0,0,7.9,4.26,34.2,34.2,0,0,0,9.58,1.45q7.58,0,12.34-3.94c3.17-2.63,4.75-5.73,4.75-9.26A10.32,10.32,0,0,0,1295.27,639.82Z"/></svg>